<?xml version="1.0" standalone="no"?>
<!DOCTYPE svg PUBLIC "-//W3C//DTD SVG 20010904//EN"
 "http://www.w3.org/TR/2001/REC-SVG-20010904/DTD/svg10.dtd">
<svg version="1.0" xmlns="http://www.w3.org/2000/svg"
 width="74.000000pt" height="74.000000pt" viewBox="0 0 74.000000 74.000000"
 preserveAspectRatio="xMidYMid meet">
<metadata>
Created by potrace 1.14, written by Peter Selinger 2001-2017
</metadata>
<g transform="translate(0.000000,74.000000) scale(0.100000,-0.100000)"
fill="#000000" stroke="none">
<path d="M547 699 c-9 -6 -17 -8 -17 -5 0 3 -18 -1 -40 -9 -22 -8 -40 -12 -40
-9 0 2 -16 -2 -35 -10 -19 -8 -35 -11 -35 -7 0 5 -16 8 -35 7 -19 -1 -35 2
-35 5 0 4 -13 5 -30 4 -16 -1 -30 0 -30 4 0 3 -18 7 -40 8 -22 2 -52 5 -66 7
-19 4 -32 -2 -50 -21 -14 -15 -23 -32 -20 -40 3 -7 0 -15 -6 -19 -7 -4 -6 -10
3 -16 11 -7 10 -11 -5 -21 -26 -16 -66 -58 -66 -69 0 -5 5 -6 12 -2 6 4 8 3 5
-4 -9 -13 2 -44 13 -37 4 3 10 -1 13 -9 3 -8 27 -27 54 -42 26 -16 50 -31 53
-34 3 -3 16 -13 30 -21 14 -9 32 -29 40 -45 8 -16 21 -37 30 -48 8 -10 14 -20
13 -22 -3 -5 9 -38 16 -44 4 -3 13 -18 20 -35 18 -37 17 -35 26 -63 4 -12 11
-22 16 -22 5 0 9 -6 9 -14 0 -18 62 -48 71 -35 3 6 9 10 13 10 23 -3 36 0 36
10 0 6 9 23 20 39 11 15 17 30 13 34 -3 3 -2 6 3 7 88 6 105 25 111 121 5 95
5 94 36 155 15 29 28 56 28 60 0 5 7 15 15 24 8 9 11 19 7 22 -3 4 -2 7 4 7
15 0 6 58 -11 76 -8 8 -18 14 -22 14 -15 0 -43 32 -38 44 6 15 -26 45 -53 50
-10 2 -27 0 -36 -5z"/>
</g>
</svg>
